<svg width="576" height="137" viewBox="0 0 576 137" fill="none" xmlns="http://www.w3.org/2000/svg">
<path d="M32.484 102.488C29.5507 102.488 26.6173 102.255 23.684 101.788C20.7507 101.388 17.984 100.755 15.384 99.888C12.784 98.9547 10.4507 97.8213 8.38401 96.488C7.18401 95.688 6.35068 94.7213 5.88401 93.588C5.41734 92.4547 5.25068 91.3547 5.38401 90.288C5.58401 89.1547 6.01734 88.188 6.68401 87.388C7.41734 86.5213 8.31734 85.988 9.38401 85.788C10.4507 85.588 11.6173 85.888 12.884 86.688C15.8173 88.4213 18.9173 89.688 22.184 90.488C25.4507 91.288 28.884 91.688 32.484 91.688C37.7507 91.688 41.584 90.8213 43.984 89.088C46.384 87.288 47.584 84.988 47.584 82.188C47.584 79.8547 46.7173 78.0213 44.984 76.688C43.3173 75.3547 40.4173 74.2547 36.284 73.388L25.284 71.088C18.9507 69.7547 14.2173 67.5213 11.084 64.388C8.01734 61.188 6.48401 56.988 6.48401 51.788C6.48401 48.5213 7.15068 45.5547 8.48401 42.888C9.81734 40.2213 11.684 37.9213 14.084 35.988C16.5507 34.0547 19.4507 32.588 22.784 31.588C26.184 30.5213 29.9173 29.988 33.984 29.988C37.984 29.988 41.784 30.488 45.384 31.488C48.984 32.488 52.2173 33.9547 55.084 35.888C56.1507 36.6213 56.8507 37.5213 57.184 38.588C57.584 39.6547 57.684 40.7213 57.484 41.788C57.284 42.788 56.8173 43.6547 56.084 44.388C55.3507 45.1213 54.4173 45.5547 53.284 45.688C52.2173 45.8213 50.984 45.488 49.584 44.688C47.1173 43.288 44.6173 42.288 42.084 41.688C39.5507 41.088 36.8173 40.788 33.884 40.788C30.8173 40.788 28.184 41.2213 25.984 42.088C23.784 42.9547 22.084 44.188 20.884 45.788C19.7507 47.3213 19.184 49.1547 19.184 51.288C19.184 53.688 19.984 55.6213 21.584 57.088C23.184 58.488 25.9173 59.588 29.784 60.388L40.684 62.688C47.284 64.088 52.184 66.288 55.384 69.288C58.6507 72.288 60.284 76.288 60.284 81.288C60.284 84.488 59.6173 87.388 58.284 89.988C57.0173 92.588 55.1507 94.8213 52.684 96.688C50.284 98.5547 47.384 99.988 43.984 100.988C40.584 101.988 36.7507 102.488 32.484 102.488ZM100.57 102.488C95.7033 102.488 91.4033 101.855 87.6699 100.588C84.0033 99.3213 80.9033 97.4547 78.3699 94.988C75.8366 92.4547 73.9366 89.3213 72.6699 85.588C71.4033 81.8547 70.7699 77.5213 70.7699 72.588V36.688C70.7699 34.488 71.3033 32.8547 72.3699 31.788C73.5033 30.7213 75.1033 30.188 77.1699 30.188C79.2366 30.188 80.8033 30.7213 81.8699 31.788C83.0033 32.8547 83.5699 34.488 83.5699 36.688V72.488C83.5699 78.8213 85.0033 83.588 87.8699 86.788C90.8033 89.9213 95.0366 91.488 100.57 91.488C106.103 91.488 110.303 89.9213 113.17 86.788C116.037 83.588 117.47 78.8213 117.47 72.488V36.688C117.47 34.488 118.003 32.8547 119.07 31.788C120.203 30.7213 121.803 30.188 123.87 30.188C125.87 30.188 127.403 30.7213 128.47 31.788C129.603 32.8547 130.17 34.488 130.17 36.688V72.588C130.17 79.1213 129.037 84.6213 126.77 89.088C124.57 93.5547 121.27 96.9213 116.87 99.188C112.47 101.388 107.037 102.488 100.57 102.488ZM151.498 102.288C149.431 102.288 147.831 101.721 146.698 100.588C145.631 99.388 145.098 97.7547 145.098 95.688V37.488C145.098 35.3547 145.665 33.7547 146.798 32.688C147.931 31.5547 149.531 30.988 151.598 30.988H175.698C183.431 30.988 189.398 32.9213 193.598 36.788C197.798 40.6547 199.898 46.0547 199.898 52.988C199.898 59.9213 197.798 65.3547 193.598 69.288C189.398 73.1547 183.431 75.088 175.698 75.088H157.898V95.688C157.898 97.7547 157.365 99.388 156.298 100.588C155.231 101.721 153.631 102.288 151.498 102.288ZM157.898 64.988H173.698C178.231 64.988 181.665 63.988 183.998 61.988C186.331 59.9213 187.498 56.9213 187.498 52.988C187.498 49.0547 186.331 46.088 183.998 44.088C181.665 42.088 178.231 41.088 173.698 41.088H157.898V64.988ZM217.132 101.488C214.932 101.488 213.232 100.921 212.032 99.788C210.899 98.588 210.332 96.888 210.332 94.688V37.788C210.332 35.588 210.899 33.9213 212.032 32.788C213.232 31.588 214.932 30.988 217.132 30.988H252.832C254.499 30.988 255.766 31.4213 256.632 32.288C257.566 33.1547 258.032 34.388 258.032 35.988C258.032 37.6547 257.566 38.9547 256.632 39.888C255.766 40.7547 254.499 41.188 252.832 41.188H222.632V60.588H250.632C252.366 60.588 253.666 61.0213 254.532 61.888C255.399 62.7547 255.832 64.0213 255.832 65.688C255.832 67.3547 255.399 68.6213 254.532 69.488C253.666 70.3547 252.366 70.788 250.632 70.788H222.632V91.288H252.832C254.499 91.288 255.766 91.7213 256.632 92.588C257.566 93.4547 258.032 94.7213 258.032 96.388C258.032 98.0547 257.566 99.3213 256.632 100.188C255.766 101.055 254.499 101.488 252.832 101.488H217.132ZM276.4 102.288C274.334 102.288 272.734 101.721 271.6 100.588C270.534 99.388 270 97.7547 270 95.688V37.488C270 35.3547 270.567 33.7547 271.7 32.688C272.834 31.5547 274.434 30.988 276.5 30.988H300.6C308.334 30.988 314.3 32.8547 318.5 36.588C322.7 40.2547 324.8 45.4213 324.8 52.088C324.8 56.4213 323.834 60.1547 321.9 63.288C320.034 66.4213 317.3 68.8213 313.7 70.488C310.1 72.1547 305.734 72.988 300.6 72.988L301.5 71.488H304.8C307.534 71.488 309.9 72.1547 311.9 73.488C313.967 74.8213 315.767 76.9213 317.3 79.788L324.8 93.688C325.6 95.088 325.967 96.4547 325.9 97.788C325.834 99.1213 325.334 100.221 324.4 101.088C323.467 101.888 322.1 102.288 320.3 102.288C318.5 102.288 317.034 101.921 315.9 101.188C314.767 100.388 313.767 99.188 312.9 97.588L302.8 78.988C301.6 76.7213 300.167 75.2213 298.5 74.488C296.9 73.688 294.834 73.288 292.3 73.288H282.8V95.688C282.8 97.7547 282.267 99.388 281.2 100.588C280.134 101.721 278.534 102.288 276.4 102.288ZM282.8 63.788H298.4C303 63.788 306.467 62.8547 308.8 60.988C311.2 59.0547 312.4 56.188 312.4 52.388C312.4 48.6547 311.2 45.8547 308.8 43.988C306.467 42.0547 303 41.088 298.4 41.088H282.8V63.788ZM362.055 102.288C358.855 102.288 355.755 102.021 352.755 101.488C349.755 100.955 346.955 100.155 344.355 99.088C341.822 97.9547 339.522 96.588 337.455 94.988C336.788 94.5213 336.322 93.988 336.055 93.388C335.855 92.7213 335.822 92.1213 335.955 91.588C336.155 90.988 336.455 90.488 336.855 90.088C337.322 89.688 337.855 89.488 338.455 89.488C339.055 89.4213 339.688 89.6213 340.355 90.088C343.422 92.3547 346.655 94.0213 350.055 95.088C353.522 96.1547 357.522 96.688 362.055 96.688C368.388 96.688 373.122 95.4547 376.255 92.988C379.455 90.5213 381.055 87.288 381.055 83.288C381.055 79.9547 379.888 77.3547 377.555 75.488C375.288 73.6213 371.522 72.1547 366.255 71.088L356.155 68.988C349.822 67.7213 345.122 65.588 342.055 62.588C338.988 59.588 337.455 55.588 337.455 50.588C337.455 47.5213 338.055 44.7547 339.255 42.288C340.455 39.7547 342.155 37.588 344.355 35.788C346.555 33.988 349.155 32.6213 352.155 31.688C355.222 30.688 358.588 30.188 362.255 30.188C366.588 30.188 370.555 30.788 374.155 31.988C377.822 33.188 381.155 35.088 384.155 37.688C384.755 38.1547 385.155 38.7213 385.355 39.388C385.555 39.988 385.555 40.588 385.355 41.188C385.155 41.7213 384.855 42.1547 384.455 42.488C384.055 42.8213 383.555 43.0213 382.955 43.088C382.355 43.088 381.722 42.8213 381.055 42.288C378.255 40.0213 375.322 38.388 372.255 37.388C369.255 36.3213 365.922 35.788 362.255 35.788C358.522 35.788 355.255 36.388 352.455 37.588C349.722 38.788 347.588 40.488 346.055 42.688C344.522 44.888 343.755 47.488 343.755 50.488C343.755 53.9547 344.822 56.7213 346.955 58.788C349.088 60.8547 352.522 62.3547 357.255 63.288L367.455 65.388C374.188 66.788 379.188 68.888 382.455 71.688C385.722 74.4213 387.355 78.188 387.355 82.988C387.355 85.8547 386.755 88.488 385.555 90.888C384.422 93.2213 382.755 95.2547 380.555 96.988C378.355 98.7213 375.688 100.055 372.555 100.988C369.488 101.855 365.988 102.288 362.055 102.288ZM398.297 102.088C397.431 102.088 396.731 101.888 396.197 101.488C395.731 101.155 395.464 100.655 395.397 99.988C395.397 99.3213 395.564 98.588 395.897 97.788L423.997 33.188C424.464 32.188 425.031 31.488 425.697 31.088C426.364 30.6213 427.031 30.388 427.697 30.388C428.497 30.388 429.197 30.6213 429.797 31.088C430.464 31.488 430.997 32.188 431.397 33.188L459.497 97.788C459.897 98.588 460.064 99.3213 459.997 99.988C459.997 100.655 459.764 101.155 459.297 101.488C458.897 101.888 458.264 102.088 457.397 102.088C456.464 102.088 455.697 101.855 455.097 101.388C454.564 100.855 454.097 100.155 453.697 99.288L445.997 81.188L449.297 82.688H405.997L409.397 81.188L401.697 99.288C401.297 100.288 400.797 101.021 400.197 101.488C399.664 101.888 399.031 102.088 398.297 102.088ZM427.597 38.588L410.597 78.588L408.297 77.388H446.997L444.897 78.588L427.797 38.588H427.597ZM476.065 101.488C475.132 101.488 474.365 101.221 473.765 100.688C473.232 100.088 472.965 99.288 472.965 98.288V33.688C472.965 32.6213 473.232 31.8213 473.765 31.288C474.299 30.7547 475.032 30.488 475.965 30.488C476.965 30.488 477.732 30.7547 478.265 31.288C478.799 31.8213 479.065 32.6213 479.065 33.688V95.988H513.465C514.465 95.988 515.199 96.2213 515.665 96.688C516.199 97.1547 516.465 97.8213 516.465 98.688C516.465 99.6213 516.199 100.321 515.665 100.788C515.199 101.255 514.465 101.488 513.465 101.488H476.065ZM529.881 101.488C528.814 101.488 527.981 101.188 527.381 100.588C526.781 99.988 526.481 99.1213 526.481 97.988V34.488C526.481 33.3547 526.781 32.488 527.381 31.888C527.981 31.288 528.814 30.988 529.881 30.988H567.681C568.614 30.988 569.314 31.2213 569.781 31.688C570.248 32.1547 570.481 32.788 570.481 33.588C570.481 34.5213 570.248 35.2213 569.781 35.688C569.314 36.088 568.614 36.288 567.681 36.288H532.481V63.088H565.681C566.614 63.088 567.314 63.3213 567.781 63.788C568.248 64.188 568.481 64.8213 568.481 65.688C568.481 66.5547 568.248 67.2213 567.781 67.688C567.314 68.1547 566.614 68.388 565.681 68.388H532.481V96.188H567.681C568.614 96.188 569.314 96.4213 569.781 96.888C570.248 97.288 570.481 97.9213 570.481 98.788C570.481 99.6547 570.248 100.321 569.781 100.788C569.314 101.255 568.614 101.488 567.681 101.488H529.881Z" fill="black"/>
</svg>
